<svg xmlns="http://www.w3.org/2000/svg" viewBox="0 0 162.82 157.62"><defs><style>.cls-1{fill:#ff0;}</style></defs><g id="Layer_2" data-name="Layer 2"><g id="Layer_1-2" data-name="Layer 1"><path d="M5.51,69.75V12.45h38.3V22H16.11V35.63H40.2v9.46H16.11V69.75Z" transform="translate(-5.51 -12.45)"/><path d="M64.53,69.75V22H46.77V12.45H93V22H75.3V69.75Z" transform="translate(-5.51 -12.45)"/><path d="M114.34,69.75V47.31L94.2,12.45h12.17l13,24.34,13.48-24.34h12.08L125,47.31V69.75Z" transform="translate(-5.51 -12.45)"/><path d="M20.34,119.82v-38H6V76.1H41v5.71H26.8v38Z" transform="translate(-5.51 -12.45)"/><path d="M46.62,119.82V76.1H53V94.42H73.65V76.1H80v43.72H73.65V100.38H53v19.44Z" transform="translate(-5.51 -12.45)"/><path d="M89.45,119.82V76.1h6.4v43.72Z" transform="translate(-5.51 -12.45)"/><path d="M105.26,119.82V76.1h6.64l21.77,35.44h-1.51V76.1h6.34v43.72h-6.78l-21.57-35.5h1.5v35.5Z" transform="translate(-5.51 -12.45)"/><path d="M9.86,169.82V126.1h6.4v43.72Zm5-13.67v-8.09l20.95-22h8.53ZM37,169.82l-14.55-23,4.76-4.45,17.25,27.47Z" transform="translate(-5.51 -12.45)"/><rect class="cls-1" x="78.38" y="110.01" width="86" height="53" transform="translate(-27.37 10.7) rotate(-10)"/><path d="M97.73,153.1l-.56-3.18c.79-.89,1.72-1.9,2.79-3s2.13-2.3,3.21-3.58a38.53,38.53,0,0,0,2.92-4,17.48,17.48,0,0,0,2-4.23,9,9,0,0,0,.28-4.23,5.39,5.39,0,0,0-1.86-3.42,4.63,4.63,0,0,0-3.91-.76,5.15,5.15,0,0,0-2.88,1.39,5,5,0,0,0-1.36,2.63,9.67,9.67,0,0,0,0,3.36l-4,.41a12.18,12.18,0,0,1-.06-3.9,10,10,0,0,1,1.25-3.51,8.74,8.74,0,0,1,2.58-2.74A9.83,9.83,0,0,1,102,122.8a9.07,9.07,0,0,1,4.73.3,7.91,7.91,0,0,1,3.57,2.52,9.27,9.27,0,0,1,1.91,4.4,11.94,11.94,0,0,1,0,4.46,16.3,16.3,0,0,1-1.52,4.36A25.09,25.09,0,0,1,108,143a41.55,41.55,0,0,1-3.47,3.86,45.75,45.75,0,0,1-4,3.5l.79-1.69,14.9-2.63.65,3.71Z" transform="translate(-5.51 -12.45)"/><path d="M121.3,148.94l-.87-4.92,4.48-.79.87,4.92Z" transform="translate(-5.51 -12.45)"/><path d="M140,146a9,9,0,0,1-4.33-.16,7.91,7.91,0,0,1-3.2-1.94,11.68,11.68,0,0,1-2.23-3.13,22.24,22.24,0,0,1-1.45-3.81c-.37-1.35-.67-2.65-.89-3.89s-.39-2.56-.5-3.93a20.07,20.07,0,0,1,0-4,11.32,11.32,0,0,1,1-3.68,7.89,7.89,0,0,1,2.32-2.89,10.17,10.17,0,0,1,8.2-1.47,8.05,8.05,0,0,1,3.16,1.86,11.2,11.2,0,0,1,2.24,3,21.68,21.68,0,0,1,1.48,3.78,36.07,36.07,0,0,1,.94,4,40.06,40.06,0,0,1,.5,4.16,21.3,21.3,0,0,1-.12,4.09,12.36,12.36,0,0,1-1.06,3.65,7.74,7.74,0,0,1-2.27,2.81A8.73,8.73,0,0,1,140,146Zm-.67-3.83a4,4,0,0,0,2.94-2,8.84,8.84,0,0,0,1-4.11,26.93,26.93,0,0,0-.46-5.46,27.47,27.47,0,0,0-1.48-5.47,9,9,0,0,0-2.37-3.55,4.09,4.09,0,0,0-3.51-.85,4,4,0,0,0-2.51,1.33,5.56,5.56,0,0,0-1.2,2.64,15.68,15.68,0,0,0-.21,3.58,35.52,35.52,0,0,0,1.44,8.17,14.34,14.34,0,0,0,1.44,3.25,5.83,5.83,0,0,0,2.06,2.07A4.19,4.19,0,0,0,139.29,142.16Z" transform="translate(-5.51 -12.45)"/></g></g></svg>