<svg xmlns="http://www.w3.org/2000/svg" viewBox="0 0 645.2 200"><defs><style>.cls-1{fill:#ff0;}.cls-2{font-size:175.8px;font-family:TimesNewRomanPS-BoldItalicMT, Times New Roman;font-weight:700;font-style:italic;letter-spacing:-0.02em;}</style></defs><g id="Layer_2" data-name="Layer 2"><g id="Layer_1-2" data-name="Layer 1"><path d="M146,86.74V29.45h38.31V39H156.61V52.63H180.7v9.45H156.61V86.74Z"/><path d="M180.21,86.74l23-57.29h8l23,57.29H222.62L207.33,45.15,191.8,86.74Zm15.12-11.18L198.62,66h17.26l3.46,9.53Z"/><path d="M259.37,87.81q-9.13,0-15-4.77a19.53,19.53,0,0,1-7.11-12.66l10.35-2.54a12.5,12.5,0,0,0,4.15,7.89,12.36,12.36,0,0,0,8,2.63,11.38,11.38,0,0,0,4.56-.87A7.43,7.43,0,0,0,267.55,75a6.79,6.79,0,0,0,1.19-4,5.79,5.79,0,0,0-1.23-3.7,11.65,11.65,0,0,0-3.74-2.88,56,56,0,0,0-6.29-2.71,48.59,48.59,0,0,1-9.09-4.56,16.66,16.66,0,0,1-5.46-5.63,15.12,15.12,0,0,1-1.81-7.57,14.73,14.73,0,0,1,2.26-8.13,15.75,15.75,0,0,1,6.33-5.59,20.79,20.79,0,0,1,9.49-2.06,19.62,19.62,0,0,1,10.24,2.67,19.21,19.21,0,0,1,7.19,7.94l-8.47,5.17a13.38,13.38,0,0,0-4.07-4.72,9,9,0,0,0-5.22-1.61,8.23,8.23,0,0,0-3.65.79,6.52,6.52,0,0,0-2.55,2.13,5.42,5.42,0,0,0-.95,3.17A5.48,5.48,0,0,0,252.83,47a11.05,11.05,0,0,0,3.62,2.83A50.84,50.84,0,0,0,263,52.71a42.87,42.87,0,0,1,8.92,4.36,17.49,17.49,0,0,1,5.47,5.55,14.72,14.72,0,0,1,1.89,7.68,16.74,16.74,0,0,1-2.51,9.09,17,17,0,0,1-6.94,6.2A23.08,23.08,0,0,1,259.37,87.81Z"/><path d="M300.72,86.74V39H283V29.45h46.2V39H311.48V86.74Z"/><path d="M335.57,86.74V29.45h38.14V39H346.17V52.63H371.9v9.45H346.17V77.21h27.54v9.53Z"/><path d="M383.08,86.74V29.45H402q7,0,11.26,2a13.35,13.35,0,0,1,6.29,5.75,18.43,18.43,0,0,1,2,8.84q0,7.89-4.48,12.21t-12.78,4.81c-1.26,0-2.55.08-3.86.08h-6.74V86.74Zm10.61-33.13h7.23a18.9,18.9,0,0,0,5-.61,7.22,7.22,0,0,0,3.66-2.22,6.74,6.74,0,0,0,1.4-4.56,6.72,6.72,0,0,0-1.4-4.61,6.84,6.84,0,0,0-3.66-2.09,21.39,21.39,0,0,0-5-.54h-7.23Zm20.55,33.13L399.85,61.92,410.7,60.6l15.78,26.14Z"/><path d="M160.84,147.81v-38h-14.3V104.1h35v5.71H167.3v38Z"/><path d="M187.12,147.81V104.1h6.39v18.31h20.64V104.1h6.4v43.71h-6.4V128.37H193.51v19.44Z"/><path d="M226.13,147.81l17-43.71h5L265,147.81h-7l-12.42-34.43-12.48,34.43Zm10-9.72,2-5.71H253l2.14,5.71Z"/><path d="M270.66,147.81V104.1h6.65l21.76,35.43h-1.51V104.1h6.34v43.71h-6.78l-21.57-35.5h1.5v35.5Z"/><path d="M340.9,147.81V130.88L325.47,104.1h7.28l11.16,20.38,11.42-20.38h7.21L347.3,130.88v16.93Z"/><path d="M383.42,148.63a20.07,20.07,0,0,1-10.69-2.82,19.21,19.21,0,0,1-7.18-7.94,28.9,28.9,0,0,1,0-23.83,19.21,19.21,0,0,1,7.18-7.94,20.07,20.07,0,0,1,10.69-2.82,20.47,20.47,0,0,1,10.85,2.82,19.12,19.12,0,0,1,7.21,7.91,26.12,26.12,0,0,1,2.58,12,25.8,25.8,0,0,1-2.61,11.88,19.34,19.34,0,0,1-7.24,7.94A20.35,20.35,0,0,1,383.42,148.63Zm0-6.09a12.9,12.9,0,0,0,12.42-7.8,22.8,22.8,0,0,0,0-17.57,14.09,14.09,0,0,0-19.85-5.8,13.11,13.11,0,0,0-4.89,5.74,23.48,23.48,0,0,0,0,17.69,13.11,13.11,0,0,0,4.89,5.74A13.56,13.56,0,0,0,383.42,142.54Z"/><path d="M427.51,148.63q-7.9,0-12.07-4.2c-2.78-2.81-4.17-6.94-4.17-12.42V104.1h6.4v27.15a18.51,18.51,0,0,0,.94,6.34,7.33,7.33,0,0,0,3.1,3.89,11.07,11.07,0,0,0,5.8,1.31,11.24,11.24,0,0,0,5.87-1.34,7.4,7.4,0,0,0,3.16-3.89,18.27,18.27,0,0,0,.95-6.31V104.1h6.33v27.59q0,8.35-4.14,12.64T427.51,148.63Z"/><path d="M483,148.53v-38h-14.3v-5.71h35v5.71H489.47v38Z"/><path d="M509.29,148.53V104.81h6.4v18.32h20.63V104.81h6.4v43.72h-6.4V129.08H515.69v19.45Z"/><path d="M552.12,148.53V104.81h6.4v43.72Z"/><path d="M567.93,148.53V104.81h6.65l21.76,35.44h-1.5V104.81h6.33v43.72H594.4L572.82,113h1.51v35.5Z"/><path d="M610.58,148.53V104.81H617v43.72Zm5-13.68v-8.09l20.95-22h8.53Zm22.14,13.68-14.55-23,4.77-4.45,17.25,27.47Z"/><rect class="cls-1" x="405.89" y="60" width="86" height="53" transform="translate(-8.2 79.26) rotate(-10)"/><path d="M425.2,103.09l-.56-3.18c.79-.89,1.72-1.9,2.79-3s2.13-2.3,3.2-3.58a37.22,37.22,0,0,0,2.93-4,17.48,17.48,0,0,0,2-4.23,9,9,0,0,0,.28-4.23,5.39,5.39,0,0,0-1.86-3.42,4.63,4.63,0,0,0-3.91-.76,4.89,4.89,0,0,0-4.25,4,9.68,9.68,0,0,0,0,3.36l-4,.41a12.18,12.18,0,0,1-.06-3.9A10,10,0,0,1,423,77.06a8.74,8.74,0,0,1,2.58-2.74,9.83,9.83,0,0,1,3.91-1.53,9.07,9.07,0,0,1,4.73.3,7.91,7.91,0,0,1,3.57,2.52,9.37,9.37,0,0,1,1.91,4.4,11.94,11.94,0,0,1,0,4.46,16.65,16.65,0,0,1-1.52,4.36A25.52,25.52,0,0,1,435.46,93,41.55,41.55,0,0,1,432,96.83a45.75,45.75,0,0,1-4,3.5l.79-1.69L443.68,96l.65,3.71Z"/><path d="M448.77,98.93,447.9,94l4.48-.79.87,4.92Z"/><path d="M467.43,96a9,9,0,0,1-4.33-.16,7.91,7.91,0,0,1-3.2-1.94,11.47,11.47,0,0,1-2.23-3.13,22.24,22.24,0,0,1-1.45-3.81c-.37-1.35-.67-2.65-.89-3.9s-.39-2.55-.51-3.92a20.83,20.83,0,0,1,.05-4,11.32,11.32,0,0,1,1-3.68,7.79,7.79,0,0,1,2.32-2.89,10.15,10.15,0,0,1,8.2-1.47,8.13,8.13,0,0,1,3.16,1.86,11.2,11.2,0,0,1,2.24,3,21.68,21.68,0,0,1,1.48,3.78,38.4,38.4,0,0,1,.93,4,40.06,40.06,0,0,1,.51,4.16A21.3,21.3,0,0,1,474.6,88a12.45,12.45,0,0,1-1.06,3.65,7.74,7.74,0,0,1-2.27,2.81A8.73,8.73,0,0,1,467.43,96Zm-.68-3.83a4,4,0,0,0,2.95-2,8.84,8.84,0,0,0,1-4.11,27.67,27.67,0,0,0-.46-5.46,26.78,26.78,0,0,0-1.49-5.47,8.93,8.93,0,0,0-2.36-3.55,4.57,4.57,0,0,0-6,.48,5.64,5.64,0,0,0-1.19,2.64,15.68,15.68,0,0,0-.21,3.58,35.52,35.52,0,0,0,1.44,8.17,14.34,14.34,0,0,0,1.44,3.25,5.83,5.83,0,0,0,2.06,2.07A4.17,4.17,0,0,0,466.75,92.15Z"/><text class="cls-2" transform="translate(0 146.1)">F</text></g></g></svg>